:FULLY-SPECIFIED
:FORCE-ALL-JOINTS-BE-3DOF
:DEGREES
2650
root -1.48519 15.3667 -28.6352 1248.12 -70.7748 -172.413
lfemur -45.2546 26.4658 -9.04584
ltibia 63.6588 -0 0
lfoot 16.3594 13.6965 -0.0340032
ltoes -7.45554 0 0
rfemur -34.8964 -18.1944 23.6439
rtibia 69.5331 -0 0
rfoot -23.2209 -6.62587 0.0400271
rtoes -5.82405 0 0
lowerback 18.8992 4.86879 -0.35836
upperback -0.195566 6.34078 0.321276
thorax -10.8877 2.98648 -1.20711
lowerneck -2.12079 9.54954 0.116482
upperneck 5.16575 12.6806 1.01116
head 1.90838 6.33788 0.579218
lclavicle 7.92654e-15 -2.5842e-15 0
lhumerus 64.5033 -35.0068 37.5176
lradius 111.459 0 0
lwrist -29.9678 0 0
lhand -39.7368 394.26 0
lfingers 7.12502 0 0
lthumb -12.7141 -656.147 0
rclavicle 7.92654e-15 -2.5842e-15 0
rhumerus 1.76754 74.6355 -75.1073
rradius 103.65 0 0
rwrist -34.0874 0 0
rhand 1.47488 -391.991 0
rfingers 7.12502 0 0
rthumb 27.0023 299.919 0
2651
root -1.61232 15.3906 -28.607 1249.02 -69.6122 -173.636
lfemur -44.8239 26.7702 -8.64725
ltibia 61.9407 -0 0
lfoot 17.7145 13.5624 0
ltoes -5.36819 0 0
rfemur -34.4301 -18.1064 23.2929
rtibia 69.6828 -0 0
rfoot -23.4793 -7.02854 0.0573179
rtoes -6.0044 0 0
lowerback 18.8266 5.12403 -0.153294
upperback -0.251411 6.70753 0.145999
thorax -10.8608 3.14407 -1.60937
lowerneck -2.0623 9.54913 0.433048
upperneck 5.42582 12.6648 1.00295
head 2.00497 6.334 0.535951
lclavicle -3.11471e-14 1.51076e-14 0
lhumerus 60.4976 -35.0133 39.3805
lradius 112.609 0 0
lwrist -30.6866 0 0
lhand -39.5637 393.024 0
lfingers 7.12502 0 0
lthumb -12.5471 -657.373 0
rclavicle -3.11471e-14 1.51076e-14 0
rhumerus -1.88965 74.1175 -77.8417
rradius 105.003 0 0
rwrist -36.0556 0 0
rhand 0.838746 -391.06 0
rfingers 7.12502 0 0
rthumb 26.3935 300.757 0
2652
root -1.74699 15.4007 -28.5767 1249.82 -68.4407 -174.71
lfemur -44.3898 27.0719 -8.24502
ltibia 60.2226 -0 0
lfoot 17.416 13.1077 0.0285452
ltoes -3.28084 0 0
rfemur -33.9647 -18.0157 22.9427
rtibia 69.8325 -0 0
rfoot -23.7379 -7.43129 0.0727918
rtoes -6.18476 0 0
lowerback 18.6485 5.27942 -0.109976
upperback -0.296713 6.92052 0.086902
thorax -10.7953 3.24382 -1.74166
lowerneck -1.9493 9.66813 0.769626
upperneck 5.77136 12.8108 0.922342
head 2.12694 6.40913 0.47193
lclavicle 5.55852e-14 -7.7526e-15 0
lhumerus 55.7798 -34.7863 42.0806
lradius 113.47 0 0
lwrist -31.3844 0 0
lhand -39.6432 392.305 0
lfingers 7.12502 0 0
lthumb -12.6238 -658.097 0
rclavicle 5.55852e-14 -7.7526e-15 0
rhumerus -5.17304 73.3265 -80.2802
rradius 106.44 0 0
rwrist -39.4547 0 0
rhand 1.35366 -390.532 0
rfingers 7.12502 0 0
rthumb 26.8863 301.36 0
2653
root -1.88081 15.4123 -28.5458 1250.22 -67.3189 -175.363
lfemur -43.9521 27.3709 -7.83915
ltibia 58.5045 -0 0
lfoot 17.1174 12.6529 0.0547206
ltoes -1.19349 0 0
rfemur -33.5001 -17.9223 22.5936
rtibia 69.9823 -0 0
rfoot -23.9965 -7.8341 0.0864478
rtoes -6.36513 0 0
lowerback 18.4973 5.38331 0.153723
upperback -0.350577 7.11216 0.017496
thorax -10.7251 3.32156 -2.00236
lowerneck -2.08064 9.75007 1.1103
upperneck 6.21737 12.8958 0.995905
head 2.31642 6.45849 0.470434
lclavicle -2.86623e-14 -4.96962e-15 0
lhumerus 50.8548 -34.3024 44.6795
lradius 114.442 0 0
lwrist -32.0293 0 0
lhand -40.8532 394.758 0
lfingers 7.12502 0 0
lthumb -13.7901 -655.72 0
rclavicle -2.86623e-14 -4.96962e-15 0
rhumerus -8.30481 72.5523 -82.4129
rradius 107.812 0 0
rwrist -43.0572 0 0
rhand 1.52679 -389.698 0
rfingers 7.12502 0 0
rthumb 27.0519 302.22 0
2654
root -2.01745 15.4186 -28.5148 1250.53 -66.2216 -175.877
lfemur -43.5108 27.6671 -7.42961
ltibia 56.7864 -0 0
lfoot 16.8185 12.198 0.0785241
ltoes 0.893855 -0 0
rfemur -33.0363 -17.8262 22.2454
rtibia 70.132 -0 0
rfoot -24.2552 -8.23697 0.098285
rtoes -6.54549 0 0
lowerback 18.2912 5.51299 0.443185
upperback -0.402093 7.35231 0.026626
thorax -10.6253 3.42507 -2.19786
lowerneck -1.96216 9.82146 1.05478
upperneck 6.48132 12.9939 0.9561
head 2.38215 6.50323 0.472659
lclavicle 3.55265e-14 -8.54774e-15 0
lhumerus 45.5285 -33.559 47.8302
lradius 115.458 0 0
lwrist -32.7479 0 0
lhand -39.8025 391.24 0
lfingers 7.12502 0 0
lthumb -12.7774 -659.171 0
rclavicle 3.55265e-14 -8.54774e-15 0
rhumerus -11.438 71.6917 -84.31
rradius 109.059 0 0
rwrist -46.9602 0 0
rhand 1.89712 -388.805 0
rfingers 7.12502 0 0
rthumb 27.4062 303.168 0
2655
root -2.1604 15.41 -28.4822 1250.61 -65.1564 -176.115
lfemur -43.0659 27.9604 -7.01638
ltibia 55.0683 -0 0
lfoot 16.5194 11.7429 0.0999533
ltoes 2.9812 -0 0
rfemur -32.5734 -17.7274 21.8982
rtibia 70.2817 -0 0
rfoot -24.5141 -8.63989 0.108302
rtoes -6.72584 0 0
lowerback 17.9732 5.52267 0.717587
upperback -0.395081 7.44089 0.171991
thorax -10.4206 3.46586 -2.18055
lowerneck -2.01361 9.97896 0.936456
upperneck 6.84729 13.2177 0.779989
head 2.51869 6.6043 0.461187
lclavicle -6.52946e-14 7.15625e-15 0
lhumerus 39.9564 -32.1983 51.0966
lradius 116.28 0 0
lwrist -33.1195 0 0
lhand -40.4054 393.05 0
lfingers 7.12502 0 0
lthumb -13.3585 -657.398 0
rclavicle -6.52946e-14 7.15625e-15 0
rhumerus -14.0119 71.1362 -85.4948
rradius 110.308 0 0
rwrist -51.3747 0 0
rhand 2.97578 -388.248 0
rfingers 7.12502 0 0
rthumb 28.4374 303.893 0
2656
root -2.29888 15.4092 -28.4506 1250.68 -64.124 -176.312
lfemur -42.6175 28.251 -6.59946
ltibia 53.3503 -0 0
lfoot 16.2202 11.2877 0.119006
ltoes 5.06855 0 0
rfemur -32.1114 -17.626 21.5521
rtibia 70.4314 -0 0
rfoot -24.7729 -9.04285 0.116499
rtoes -6.9062 0 0
lowerback 17.6746 5.64296 1.12687
upperback -0.44559 7.69285 0.207035
thorax -10.2516 3.57344 -2.40251
lowerneck -1.98806 10.1079 1.13313
upperneck 7.10067 13.3916 0.600947
head 2.6279 6.68828 0.391811
lclavicle -2.81001e-14 7.15625e-15 0
lhumerus 34.5771 -30.8719 54.3999
lradius 117.08 0 0
lwrist -33.2966 0 0
lhand -41.0611 394.39 0
lfingers 7.12502 0 0
lthumb -13.9905 -656.101 0
rclavicle -2.81001e-14 7.15625e-15 0
rhumerus -16.9994 70.0379 -87.0087
rradius 111.354 0 0
rwrist -55.938 0 0
rhand 2.72138 -387.152 0
rfingers 7.12502 0 0
rthumb 28.1943 304.949 0
